<svg width="14" height="17" viewBox="0 0 14 17" fill="none" xmlns="http://www.w3.org/2000/svg">
<path d="M13 0.5C12.5 0.5 9 1.5 9 6V9.5C9 10.6031 9.89688 11.5 11 11.5H12V15.5C12 16.0531 12.4469 16.5 13 16.5C13.5531 16.5 14 16.0531 14 15.5V11.5V8V1.5C14 0.946875 13.5531 0.5 13 0.5ZM2 1C2 0.74375 1.80938 0.53125 1.55313 0.503125C1.29688 0.475 1.06875 0.64375 1.0125 0.890625L0.065625 5.15C0.021875 5.34688 0 5.54688 0 5.74687C0 7.18125 1.09687 8.35938 2.5 8.4875V15.5C2.5 16.0531 2.94688 16.5 3.5 16.5C4.05312 16.5 4.5 16.0531 4.5 15.5V8.4875C5.90312 8.35938 7 7.18125 7 5.74687C7 5.54688 6.97812 5.34688 6.93437 5.15L5.9875 0.890625C5.93125 0.640625 5.69688 0.475 5.44375 0.503125C5.19062 0.53125 5 0.74375 5 1V5.19375C5 5.3625 4.8625 5.5 4.69375 5.5C4.53437 5.5 4.40312 5.37813 4.3875 5.21875L3.99688 0.95625C3.975 0.696875 3.75938 0.5 3.5 0.5C3.24062 0.5 3.025 0.696875 3.00312 0.95625L2.61562 5.21875C2.6 5.37813 2.46875 5.5 2.30938 5.5C2.14062 5.5 2.00312 5.3625 2.00312 5.19375V1H2ZM3.50938 5.75H3.5H3.49062L3.5 5.72813L3.50938 5.75Z" fill="#532F17"/>
</svg>