<svg width="60" height="60" viewBox="0 0 60 60" fill="none" xmlns="http://www.w3.org/2000/svg">
<path d="M42.5 5H17.5C10.5964 5 5 10.5964 5 17.5V42.5C5 49.4036 10.5964 55 17.5 55H42.5C49.4036 55 55 49.4036 55 42.5V17.5C55 10.5964 49.4036 5 42.5 5Z" stroke="#252628" stroke-width="6" stroke-linecap="round" stroke-linejoin="round"/>
<path d="M40.0002 28.4248C40.3088 30.5054 39.9534 32.6303 38.9846 34.4973C38.0159 36.3643 36.4831 37.8783 34.6043 38.824C32.7255 39.7696 30.5964 40.0988 28.5197 39.7646C26.4431 39.4304 24.5246 38.45 23.0373 36.9627C21.55 35.4754 20.5696 33.557 20.2354 31.4803C19.9013 29.4037 20.2304 27.2745 21.1761 25.3957C22.1217 23.5169 23.6357 21.9841 25.5027 21.0154C27.3697 20.0466 29.4946 19.6912 31.5752 19.9998C33.6976 20.3145 35.6624 21.3034 37.1795 22.8205C38.6966 24.3377 39.6855 26.3025 40.0002 28.4248Z" stroke="#252628" stroke-width="6" stroke-linecap="round" stroke-linejoin="round"/>
<path d="M43.75 16.25H43.7746" stroke="#252628" stroke-width="6" stroke-linecap="round" stroke-linejoin="round"/>
</svg>
